<?xml version="1.0" encoding="UTF-8" standalone="no"?>
<!-- Created with Inkscape (http://www.inkscape.org/) -->

<svg
   xmlns:dc="http://purl.org/dc/elements/1.1/"
   xmlns:cc="http://creativecommons.org/ns#"
   xmlns:rdf="http://www.w3.org/1999/02/22-rdf-syntax-ns#"
   xmlns:svg="http://www.w3.org/2000/svg"
   xmlns="http://www.w3.org/2000/svg"
   xmlns:sodipodi="http://sodipodi.sourceforge.net/DTD/sodipodi-0.dtd"
   xmlns:inkscape="http://www.inkscape.org/namespaces/inkscape"
   width="145"
   height="145"
   viewBox="0 0 34.528125 34.528125"
   version="1.1"
   id="svg8"
   inkscape:version="0.92.3 (2405546, 2018-03-11)"
   sodipodi:docname="dk-circle.logo-bottom.svg"
   inkscape:export-filename="/home/david/Projects/Kaidawei.me/Design Assets/dk-logo-circle-bottom.png"
   inkscape:export-xdpi="96.172356"
   inkscape:export-ydpi="96.172356">
  <defs
     id="defs2" />
  <sodipodi:namedview
     id="base"
     pagecolor="#000000"
     bordercolor="#666666"
     borderopacity="1.0"
     inkscape:pageopacity="0"
     inkscape:pageshadow="2"
     inkscape:zoom="4"
     inkscape:cx="81.5"
     inkscape:cy="90.34529"
     inkscape:document-units="mm"
     inkscape:current-layer="layer4"
     showgrid="false"
     units="px"
     inkscape:pagecheckerboard="true"
     borderlayer="false"
     inkscape:snap-text-baseline="false"
     inkscape:window-width="1920"
     inkscape:window-height="1015"
     inkscape:window-x="1920"
     inkscape:window-y="0"
     inkscape:window-maximized="1"
     scale-x="0.9"
     showguides="true"
     inkscape:guide-bbox="true">
    <sodipodi:guide
       position="0,15.656719"
       orientation="1,0"
       id="guide2502"
       inkscape:locked="false" />
    <sodipodi:guide
       position="34.587656,21.312188"
       orientation="1,0"
       id="guide2504"
       inkscape:locked="false" />
    <sodipodi:guide
       position="28.336875,34.528125"
       orientation="0,1"
       id="guide2506"
       inkscape:locked="false" />
  </sodipodi:namedview>
  <metadata
     id="metadata5">
    <rdf:RDF>
      <cc:Work
         rdf:about="">
        <dc:format>image/svg+xml</dc:format>
        <dc:type
           rdf:resource="http://purl.org/dc/dcmitype/StillImage" />
        <dc:title></dc:title>
      </cc:Work>
    </rdf:RDF>
  </metadata>
  <g
     inkscape:groupmode="layer"
     id="layer4"
     inkscape:label="merge">
    <circle
       r="16.042061"
       cy="17.357889"
       cx="17.351248"
       id="circle2547"
       style="display:inline;fill:#e66722;fill-opacity:1;stroke:#000000;stroke-width:2.38212442;stroke-miterlimit:4;stroke-dasharray:none;stroke-opacity:1" />
    <g
       aria-label="DK"
       transform="matrix(0.70495507,-0.01192164,0,1.4185301,0,0)"
       style="font-style:normal;font-variant:normal;font-weight:bold;font-stretch:normal;font-size:15.15117359px;line-height:1.25;font-family:Audrey;-inkscape-font-specification:'Audrey, Bold';font-variant-ligatures:normal;font-variant-caps:normal;font-variant-numeric:normal;text-align:center;letter-spacing:0px;word-spacing:0px;writing-mode:lr-tb;text-anchor:middle;display:inline;fill:#ffffff;fill-opacity:1;stroke:none;stroke-width:0.04370531"
       id="text2702">
      <path
         d="M 20.773298,10.022009 Q 20.424821,9.0068804 19.833925,8.4159846 19.227878,7.7947865 18.515773,7.5826701 17.788517,7.3554025 16.561272,7.3554025 q -0.606047,0 -0.89392,0.015151 v 9.4543324 h 1.333304 q 1.363605,0 2.19692,-0.363628 0.77271,-0.333326 1.348454,-1.363606 0.560594,-1.075733 0.560594,-2.727211 0,-1.348455 -0.333326,-2.348432 z m 2.363583,4.499899 q -0.393931,1.075733 -1.060582,1.757536 -0.63635,0.681803 -1.560571,1.060582 -0.863617,0.363628 -1.651478,0.454535 -0.742408,0.09091 -2.121164,0.09091 H 13.44013 V 6.2796691 l 3.333258,0.015151 q 2.499944,0 3.909003,0.7727099 1.42421,0.7727098 2.136315,2.1211643 0.696954,1.3333035 0.696954,3.0605375 0,1.242396 -0.378779,2.272676 z"
         style="stroke-width:0.04370531"
         id="path2704" />
      <path
         d="m 34.495763,15.491583 v -0.01515 q -0.09091,-0.09091 -0.09091,-0.181815 l 2.575699,2.590851 h -3.121142 l -1.787838,-1.924199 0.575745,-0.227268 q -0.333326,0.07576 -0.590896,0.01515 -0.25757,-0.07576 -0.348477,-0.136361 -0.07576,-0.06061 -0.212117,-0.212116 l -2.893874,-2.878723 -0.378779,0.363628 v 1.848443 3.151444 H 25.965652 V 14.734024 9.3705086 6.2948203 h 2.257525 v 3.0756883 2.0605594 l 2.606002,-2.3938853 q 0.01515,-0.045454 0.09091,-0.1212094 l 2.909025,-2.621153 h 1.530269 l -2.651456,2.4696413 q -0.07576,0.060605 -0.287872,0.2727211 -0.212116,0.2121165 -0.363628,0.348477 l -0.242419,0.2727212 -1.54542,1.3939081 3.818096,3.893851 q 0.04545,0.04545 0.151512,0.136361 0.121209,0.09091 0.166663,0.136361 L 33.81396,15.46128 q 0.621198,-0.106058 0.681803,0.0303 z"
         style="stroke-width:0.04370531"
         id="path2706" />
    </g>
  </g>
</svg>
